<svg xmlns="http://www.w3.org/2000/svg" width="900" height="395" viewBox="0 0 900 395" role="img" aria-label="neofetch: wiktor, 16, warsaw, systems, fullstack and ai"><style>
:root { --bg:#0d1117; --panel:#161b22; --border:#30363d; --fg:#e6edf3; --dim:#8b949e; --faint:#6e7681;
        --accent:#7ee787; --accent2:#79c0ff; --warm:#ffa657; --pill:#21262d; }
@media (prefers-color-scheme: light) {
  :root { --bg:#ffffff; --panel:#f6f8fa; --border:#d0d7de; --fg:#1f2328; --dim:#59636e; --faint:#818b98;
          --accent:#1a7f37; --accent2:#0969da; --warm:#bc4c00; --pill:#eaeef2; }
}
.mono { font-family: ui-monospace, SFMono-Regular, "JetBrains Mono", Menlo, Consolas, "DejaVu Sans Mono", monospace; }
.sans { font-family: -apple-system, BlinkMacSystemFont, "Segoe UI", "Noto Sans", Helvetica, Arial, sans-serif; }

    text { font-size:14px; fill:var(--fg); white-space:pre; }
    .win { fill:var(--bg); stroke:var(--border); } .bar { fill:var(--panel); } .sep { stroke:var(--border); }
    .title { font-size:12px; fill:var(--dim); }
    .prompt { fill:var(--accent); font-weight:700; } .cmd { font-weight:600; }
    .shadow { fill:var(--border); }
    .g1 { stop-color:#7ee787; } .g2 { stop-color:#79c0ff; }
    @media (prefers-color-scheme: light) { .g1 { stop-color:#1a7f37; } .g2 { stop-color:#0969da; } }
    .user { fill:var(--accent2); font-weight:700; } .dim { fill:var(--dim); } .faint { fill:var(--faint); }
    .key { fill:var(--accent); font-weight:700; } .val { fill:var(--fg); }
    .motto { fill:var(--warm); }
    .cursor { fill:var(--accent); animation: blink 1.1s steps(1) infinite; }
    @keyframes blink { 50% { opacity:0; } }
    </style><rect class="win" x="0.5" y="0.5" width="899" height="394" rx="12"/><path class="bar" d="M12.5 .5h875a12 12 0 0 1 12 12v24h-899v-24a12 12 0 0 1 12-12z"/><line class="sep" x1="0.5" y1="36.5" x2="899.5" y2="36.5"/><circle cx="22" cy="18.5" r="6" fill="#ff5f57"/><circle cx="42" cy="18.5" r="6" fill="#febc2e"/><circle cx="62" cy="18.5" r="6" fill="#28c840"/><text class="mono title" x="450.0" y="23" text-anchor="middle">overspend1@warsaw: ~</text><clipPath id="type"><rect x="40" y="52" width="0" height="24"><animate attributeName="width" begin="0.4s" dur="0.56s" calcMode="discrete" values="0.0;8.4;16.8;25.2;33.6;42.0;50.4;58.8;67.2;75.6;84.0" fill="freeze"/></rect></clipPath><text class="mono" x="40" y="68" clip-path="url(#type)"><tspan class="prompt">❯</tspan> <tspan class="cmd">neofetch</tspan></text><linearGradient id="g" gradientUnits="userSpaceOnUse" x1="40" y1="160.0" x2="274" y2="274.0"><stop offset="0" class="g1"/><stop offset="1" class="g2"/></linearGradient><g opacity="0"><animate attributeName="opacity" from="0" to="1" begin="1.21s" dur="0.5s" fill="freeze"/><g class="shadow"><rect x="57" y="164.0" width="13" height="19"/><rect x="70" y="164.0" width="13" height="19"/><rect x="83" y="164.0" width="13" height="19"/><rect x="96" y="164.0" width="13" height="19"/><rect x="109" y="164.0" width="13" height="19"/><rect x="122" y="164.0" width="13" height="19"/><rect x="161" y="164.0" width="13" height="19"/><rect x="174" y="164.0" width="13" height="19"/><rect x="239" y="164.0" width="13" height="19"/><rect x="252" y="164.0" width="13" height="19"/><rect x="44" y="183.0" width="13" height="19"/><rect x="57" y="183.0" width="13" height="19"/><rect x="122" y="183.0" width="13" height="19"/><rect x="135" y="183.0" width="13" height="19"/><rect x="161" y="183.0" width="13" height="19"/><rect x="174" y="183.0" width="13" height="19"/><rect x="239" y="183.0" width="13" height="19"/><rect x="252" y="183.0" width="13" height="19"/><rect x="44" y="202.0" width="13" height="19"/><rect x="57" y="202.0" width="13" height="19"/><rect x="122" y="202.0" width="13" height="19"/><rect x="135" y="202.0" width="13" height="19"/><rect x="161" y="202.0" width="13" height="19"/><rect x="174" y="202.0" width="13" height="19"/><rect x="239" y="202.0" width="13" height="19"/><rect x="252" y="202.0" width="13" height="19"/><rect x="44" y="221.0" width="13" height="19"/><rect x="57" y="221.0" width="13" height="19"/><rect x="122" y="221.0" width="13" height="19"/><rect x="135" y="221.0" width="13" height="19"/><rect x="174" y="221.0" width="13" height="19"/><rect x="187" y="221.0" width="13" height="19"/><rect x="226" y="221.0" width="13" height="19"/><rect x="239" y="221.0" width="13" height="19"/><rect x="57" y="240.0" width="13" height="19"/><rect x="70" y="240.0" width="13" height="19"/><rect x="83" y="240.0" width="13" height="19"/><rect x="96" y="240.0" width="13" height="19"/><rect x="109" y="240.0" width="13" height="19"/><rect x="122" y="240.0" width="13" height="19"/><rect x="187" y="240.0" width="13" height="19"/><rect x="200" y="240.0" width="13" height="19"/><rect x="213" y="240.0" width="13" height="19"/><rect x="226" y="240.0" width="13" height="19"/></g><g fill="url(#g)"><rect x="53" y="160.0" width="13.5" height="19.5"/><rect x="66" y="160.0" width="13.5" height="19.5"/><rect x="79" y="160.0" width="13.5" height="19.5"/><rect x="92" y="160.0" width="13.5" height="19.5"/><rect x="105" y="160.0" width="13.5" height="19.5"/><rect x="118" y="160.0" width="13.5" height="19.5"/><rect x="157" y="160.0" width="13.5" height="19.5"/><rect x="170" y="160.0" width="13.5" height="19.5"/><rect x="235" y="160.0" width="13.5" height="19.5"/><rect x="248" y="160.0" width="13.5" height="19.5"/><rect x="40" y="179.0" width="13.5" height="19.5"/><rect x="53" y="179.0" width="13.5" height="19.5"/><rect x="118" y="179.0" width="13.5" height="19.5"/><rect x="131" y="179.0" width="13.5" height="19.5"/><rect x="157" y="179.0" width="13.5" height="19.5"/><rect x="170" y="179.0" width="13.5" height="19.5"/><rect x="235" y="179.0" width="13.5" height="19.5"/><rect x="248" y="179.0" width="13.5" height="19.5"/><rect x="40" y="198.0" width="13.5" height="19.5"/><rect x="53" y="198.0" width="13.5" height="19.5"/><rect x="118" y="198.0" width="13.5" height="19.5"/><rect x="131" y="198.0" width="13.5" height="19.5"/><rect x="157" y="198.0" width="13.5" height="19.5"/><rect x="170" y="198.0" width="13.5" height="19.5"/><rect x="235" y="198.0" width="13.5" height="19.5"/><rect x="248" y="198.0" width="13.5" height="19.5"/><rect x="40" y="217.0" width="13.5" height="19.5"/><rect x="53" y="217.0" width="13.5" height="19.5"/><rect x="118" y="217.0" width="13.5" height="19.5"/><rect x="131" y="217.0" width="13.5" height="19.5"/><rect x="170" y="217.0" width="13.5" height="19.5"/><rect x="183" y="217.0" width="13.5" height="19.5"/><rect x="222" y="217.0" width="13.5" height="19.5"/><rect x="235" y="217.0" width="13.5" height="19.5"/><rect x="53" y="236.0" width="13.5" height="19.5"/><rect x="66" y="236.0" width="13.5" height="19.5"/><rect x="79" y="236.0" width="13.5" height="19.5"/><rect x="92" y="236.0" width="13.5" height="19.5"/><rect x="105" y="236.0" width="13.5" height="19.5"/><rect x="118" y="236.0" width="13.5" height="19.5"/><rect x="183" y="236.0" width="13.5" height="19.5"/><rect x="196" y="236.0" width="13.5" height="19.5"/><rect x="209" y="236.0" width="13.5" height="19.5"/><rect x="222" y="236.0" width="13.5" height="19.5"/></g></g><text class="mono" x="330" y="104" opacity="0"><tspan class="user">overspend1</tspan><tspan class="dim">@</tspan><tspan class="user">warsaw</tspan><animate attributeName="opacity" from="0" to="1" begin="1.36s" dur="0.25s" fill="freeze"/></text><text class="mono" x="330" y="126" opacity="0"><tspan class="faint">─────────────────</tspan><animate attributeName="opacity" from="0" to="1" begin="1.43s" dur="0.25s" fill="freeze"/></text><text class="mono" x="330" y="148" opacity="0"><tspan class="key">name      </tspan><tspan class="val">wiktor</tspan><animate attributeName="opacity" from="0" to="1" begin="1.50s" dur="0.25s" fill="freeze"/></text><text class="mono" x="330" y="170" opacity="0"><tspan class="key">age       </tspan><tspan class="val">16</tspan><animate attributeName="opacity" from="0" to="1" begin="1.57s" dur="0.25s" fill="freeze"/></text><text class="mono" x="330" y="192" opacity="0"><tspan class="key">based     </tspan><tspan class="val">warsaw, pl</tspan><animate attributeName="opacity" from="0" to="1" begin="1.64s" dur="0.25s" fill="freeze"/></text><text class="mono" x="330" y="214" opacity="0"><tspan class="key">focus     </tspan><tspan class="val">systems · fullstack · ai</tspan><animate attributeName="opacity" from="0" to="1" begin="1.71s" dur="0.25s" fill="freeze"/></text><text class="mono" x="330" y="236" opacity="0"><tspan class="key">lang      </tspan><tspan class="val">rust  python  kotlin  typescript</tspan><animate attributeName="opacity" from="0" to="1" begin="1.78s" dur="0.25s" fill="freeze"/></text><text class="mono" x="330" y="258" opacity="0"><tspan class="key">shipping  </tspan><tspan class="val">corestate</tspan><animate attributeName="opacity" from="0" to="1" begin="1.85s" dur="0.25s" fill="freeze"/></text><text class="mono" x="330" y="280" opacity="0"><tspan class="key">cooking   </tspan><tspan class="val">oversync</tspan><animate attributeName="opacity" from="0" to="1" begin="1.92s" dur="0.25s" fill="freeze"/></text><text class="mono" x="330" y="302" opacity="0"><tspan class="key">hobby     </tspan><tspan class="val">hackintosh EFIs on amd ryzen</tspan><animate attributeName="opacity" from="0" to="1" begin="1.99s" dur="0.25s" fill="freeze"/></text><g opacity="0"><animate attributeName="opacity" from="0" to="1" begin="2.06s" dur="0.3s" fill="freeze"/><rect x="330" y="316" width="22" height="12" rx="3" fill="#ff7b72"/><rect x="356" y="316" width="22" height="12" rx="3" fill="#ffa657"/><rect x="382" y="316" width="22" height="12" rx="3" fill="#e3b341"/><rect x="408" y="316" width="22" height="12" rx="3" fill="#7ee787"/><rect x="434" y="316" width="22" height="12" rx="3" fill="#79c0ff"/><rect x="460" y="316" width="22" height="12" rx="3" fill="#d2a8ff"/><rect x="486" y="316" width="22" height="12" rx="3" fill="#f778ba"/><rect x="512" y="316" width="22" height="12" rx="3" fill="#8b949e"/></g><g opacity="0"><animate attributeName="opacity" from="0" to="1" begin="2.41s" dur="0.3s" fill="freeze"/><text class="mono" x="40" y="361.4"><tspan class="prompt">❯</tspan> <tspan class="faint"># </tspan><tspan class="motto">low-level systems ∩ applied intelligence</tspan></text><rect class="cursor" x="418.0" y="349.4" width="8.4" height="16"/></g></svg>
